<svg width="80" height="80" viewBox="0 0 80 80" fill="none" xmlns="http://www.w3.org/2000/svg">
<path d="M25 50C23.625 50 22.5 51.125 22.5 52.5V62.5C22.5 63.875 23.625 65 25 65H55C56.375 65 57.5 63.875 57.5 62.5V52.5C57.5 51.125 56.375 50 55 50H25Z" fill="#825C00"/>
<path d="M40 53.75C48.2843 53.75 55 52.6307 55 51.25C55 49.8693 48.2843 48.75 40 48.75C31.7157 48.75 25 49.8693 25 51.25C25 52.6307 31.7157 53.75 40 53.75Z" fill="#A2A544"/>
<path d="M32.5 47.5C30 45 27.5 40 30 35C32.5 30 35 32.5 35 35C35 37.5 33.75 42.5 32.5 47.5Z" fill="#076804"/>
<path d="M47.5 47.5C50 45 52.5 40 50 35C47.5 30 45 32.5 45 35C45 37.5 46.25 42.5 47.5 47.5Z" fill="#076804"/>
<path d="M40 43.75C37.5 37.5 35 30 40 22.5C45 30 42.5 37.5 40 43.75Z" fill="#076804"/>
<path d="M40 23.75C42.0711 23.75 43.75 22.0711 43.75 20C43.75 17.9289 42.0711 16.25 40 16.25C37.9289 16.25 36.25 17.9289 36.25 20C36.25 22.0711 37.9289 23.75 40 23.75Z" fill="#825C00"/>
</svg>
